<?xml version="1.0" encoding="UTF-8"?>
<svg xmlns="http://www.w3.org/2000/svg" xmlns:xlink="http://www.w3.org/1999/xlink" width="586pt" height="391pt" viewBox="0 0 586 391" version="1.1">
<defs>
<clipPath id="clip1">
  <path d="M 238.5 6.75 C 238.5 5.488281 239.398438 4.5 240.75 4.5 L 344.25 4.5 C 345.148438 4.5 346.5 5.488281 346.5 6.75 L 346.5 38.25 C 346.5 39.511719 345.148438 40.5 344.25 40.5 L 240.75 40.5 C 239.398438 40.5 238.5 39.511719 238.5 38.25 Z M 238.5 6.75 "/>
</clipPath>
<linearGradient id="linear0" gradientUnits="userSpaceOnUse" x1="0" y1="0" x2="1" y2="0.332031" gradientTransform="matrix(108,0,0,108,238.5,4.5)">
<stop offset="0" style="stop-color:rgb(63.09967%,74.899292%,82.699585%);stop-opacity:1;"/>
<stop offset="0.015625" style="stop-color:rgb(62.974548%,74.812317%,82.641602%);stop-opacity:1;"/>
<stop offset="0.03125" style="stop-color:rgb(62.724304%,74.641418%,82.525635%);stop-opacity:1;"/>
<stop offset="0.046875" style="stop-color:rgb(62.47406%,74.468994%,82.409668%);stop-opacity:1;"/>
<stop offset="0.0625" style="stop-color:rgb(62.223816%,74.29657%,82.293701%);stop-opacity:1;"/>
<stop offset="0.078125" style="stop-color:rgb(61.973572%,74.125671%,82.17926%);stop-opacity:1;"/>
<stop offset="0.09375" style="stop-color:rgb(61.723328%,73.953247%,82.063293%);stop-opacity:1;"/>
<stop offset="0.09991" style="stop-color:rgb(61.474609%,73.780823%,81.947327%);stop-opacity:1;"/>
<stop offset="0.109375" style="stop-color:rgb(61.349487%,73.695374%,81.889343%);stop-opacity:1;"/>
<stop offset="0.125" style="stop-color:rgb(61.224365%,73.609924%,81.83136%);stop-opacity:1;"/>
<stop offset="0.140625" style="stop-color:rgb(60.974121%,73.4375%,81.716919%);stop-opacity:1;"/>
<stop offset="0.15625" style="stop-color:rgb(60.723877%,73.265076%,81.600952%);stop-opacity:1;"/>
<stop offset="0.171875" style="stop-color:rgb(60.473633%,73.094177%,81.484985%);stop-opacity:1;"/>
<stop offset="0.1875" style="stop-color:rgb(60.223389%,72.921753%,81.369019%);stop-opacity:1;"/>
<stop offset="0.203125" style="stop-color:rgb(59.973145%,72.749329%,81.253052%);stop-opacity:1;"/>
<stop offset="0.21875" style="stop-color:rgb(59.724426%,72.57843%,81.138611%);stop-opacity:1;"/>
<stop offset="0.234375" style="stop-color:rgb(59.474182%,72.406006%,81.022644%);stop-opacity:1;"/>
<stop offset="0.25" style="stop-color:rgb(59.223938%,72.235107%,80.906677%);stop-opacity:1;"/>
<stop offset="0.265625" style="stop-color:rgb(58.973694%,72.062683%,80.79071%);stop-opacity:1;"/>
<stop offset="0.28125" style="stop-color:rgb(58.72345%,71.890259%,80.674744%);stop-opacity:1;"/>
<stop offset="0.296875" style="stop-color:rgb(58.473206%,71.71936%,80.560303%);stop-opacity:1;"/>
<stop offset="0.3125" style="stop-color:rgb(58.222961%,71.546936%,80.444336%);stop-opacity:1;"/>
<stop offset="0.328125" style="stop-color:rgb(57.974243%,71.374512%,80.328369%);stop-opacity:1;"/>
<stop offset="0.34375" style="stop-color:rgb(57.723999%,71.203613%,80.212402%);stop-opacity:1;"/>
<stop offset="0.359375" style="stop-color:rgb(57.473755%,71.031189%,80.097961%);stop-opacity:1;"/>
<stop offset="0.375" style="stop-color:rgb(57.223511%,70.858765%,79.981995%);stop-opacity:1;"/>
<stop offset="0.390625" style="stop-color:rgb(56.973267%,70.687866%,79.866028%);stop-opacity:1;"/>
<stop offset="0.40625" style="stop-color:rgb(56.723022%,70.515442%,79.750061%);stop-opacity:1;"/>
<stop offset="0.421875" style="stop-color:rgb(56.472778%,70.343018%,79.634094%);stop-opacity:1;"/>
<stop offset="0.4375" style="stop-color:rgb(56.22406%,70.172119%,79.519653%);stop-opacity:1;"/>
<stop offset="0.453125" style="stop-color:rgb(55.973816%,69.999695%,79.403687%);stop-opacity:1;"/>
<stop offset="0.46875" style="stop-color:rgb(55.723572%,69.827271%,79.28772%);stop-opacity:1;"/>
<stop offset="0.484375" style="stop-color:rgb(55.473328%,69.656372%,79.171753%);stop-opacity:1;"/>
<stop offset="0.5" style="stop-color:rgb(55.223083%,69.483948%,79.055786%);stop-opacity:1;"/>
<stop offset="0.515625" style="stop-color:rgb(54.972839%,69.311523%,78.941345%);stop-opacity:1;"/>
<stop offset="0.53125" style="stop-color:rgb(54.722595%,69.140625%,78.825378%);stop-opacity:1;"/>
<stop offset="0.546875" style="stop-color:rgb(54.473877%,68.968201%,78.709412%);stop-opacity:1;"/>
<stop offset="0.5625" style="stop-color:rgb(54.223633%,68.797302%,78.593445%);stop-opacity:1;"/>
<stop offset="0.578125" style="stop-color:rgb(53.973389%,68.624878%,78.479004%);stop-opacity:1;"/>
<stop offset="0.59375" style="stop-color:rgb(53.723145%,68.452454%,78.363037%);stop-opacity:1;"/>
<stop offset="0.609375" style="stop-color:rgb(53.4729%,68.281555%,78.24707%);stop-opacity:1;"/>
<stop offset="0.625" style="stop-color:rgb(53.222656%,68.109131%,78.131104%);stop-opacity:1;"/>
<stop offset="0.640625" style="stop-color:rgb(52.972412%,67.936707%,78.015137%);stop-opacity:1;"/>
<stop offset="0.65625" style="stop-color:rgb(52.723694%,67.765808%,77.900696%);stop-opacity:1;"/>
<stop offset="0.671875" style="stop-color:rgb(52.47345%,67.593384%,77.784729%);stop-opacity:1;"/>
<stop offset="0.6875" style="stop-color:rgb(52.223206%,67.420959%,77.668762%);stop-opacity:1;"/>
<stop offset="0.703125" style="stop-color:rgb(51.972961%,67.250061%,77.552795%);stop-opacity:1;"/>
<stop offset="0.71875" style="stop-color:rgb(51.722717%,67.077637%,77.438354%);stop-opacity:1;"/>
<stop offset="0.734375" style="stop-color:rgb(51.472473%,66.905212%,77.322388%);stop-opacity:1;"/>
<stop offset="0.75" style="stop-color:rgb(51.222229%,66.734314%,77.206421%);stop-opacity:1;"/>
<stop offset="0.765625" style="stop-color:rgb(50.973511%,66.56189%,77.090454%);stop-opacity:1;"/>
<stop offset="0.78125" style="stop-color:rgb(50.723267%,66.389465%,76.974487%);stop-opacity:1;"/>
<stop offset="0.796875" style="stop-color:rgb(50.473022%,66.218567%,76.860046%);stop-opacity:1;"/>
<stop offset="0.8125" style="stop-color:rgb(50.222778%,66.046143%,76.74408%);stop-opacity:1;"/>
<stop offset="0.828125" style="stop-color:rgb(49.972534%,65.873718%,76.628113%);stop-opacity:1;"/>
<stop offset="0.84375" style="stop-color:rgb(49.72229%,65.70282%,76.512146%);stop-opacity:1;"/>
<stop offset="0.859375" style="stop-color:rgb(49.472046%,65.530396%,76.396179%);stop-opacity:1;"/>
<stop offset="0.875" style="stop-color:rgb(49.223328%,65.357971%,76.281738%);stop-opacity:1;"/>
<stop offset="0.890625" style="stop-color:rgb(48.973083%,65.187073%,76.165771%);stop-opacity:1;"/>
<stop offset="0.90009" style="stop-color:rgb(48.722839%,65.014648%,76.049805%);stop-opacity:1;"/>
<stop offset="0.90625" style="stop-color:rgb(48.597717%,64.929199%,75.991821%);stop-opacity:1;"/>
<stop offset="0.921875" style="stop-color:rgb(48.472595%,64.84375%,75.933838%);stop-opacity:1;"/>
<stop offset="0.9375" style="stop-color:rgb(48.222351%,64.671326%,75.819397%);stop-opacity:1;"/>
<stop offset="0.953125" style="stop-color:rgb(47.972107%,64.498901%,75.70343%);stop-opacity:1;"/>
<stop offset="0.96875" style="stop-color:rgb(47.721863%,64.328003%,75.587463%);stop-opacity:1;"/>
<stop offset="0.984375" style="stop-color:rgb(47.473145%,64.155579%,75.471497%);stop-opacity:1;"/>
<stop offset="1" style="stop-color:rgb(47.2229%,63.98468%,75.35553%);stop-opacity:1;"/>
</linearGradient>
<clipPath id="clip2">
  <path d="M 418.5 258.75 C 418.5 257.398438 419.398438 256.5 420.75 256.5 L 524.25 256.5 C 525.148438 256.5 526.5 257.398438 526.5 258.75 L 526.5 290.25 C 526.5 291.148438 525.148438 292.5 524.25 292.5 L 420.75 292.5 C 419.398438 292.5 418.5 291.148438 418.5 290.25 Z M 418.5 258.75 "/>
</clipPath>
<linearGradient id="linear1" gradientUnits="userSpaceOnUse" x1="0" y1="0" x2="1" y2="0.332031" gradientTransform="matrix(108,0,0,108,418.5,256.5)">
<stop offset="0" style="stop-color:rgb(39.99939%,53.29895%,45.498657%);stop-opacity:1;"/>
<stop offset="0.015625" style="stop-color:rgb(39.912415%,53.186035%,45.402527%);stop-opacity:1;"/>
<stop offset="0.03125" style="stop-color:rgb(39.741516%,52.958679%,45.211792%);stop-opacity:1;"/>
<stop offset="0.046875" style="stop-color:rgb(39.569092%,52.732849%,45.022583%);stop-opacity:1;"/>
<stop offset="0.0625" style="stop-color:rgb(39.396667%,52.505493%,44.831848%);stop-opacity:1;"/>
<stop offset="0.078125" style="stop-color:rgb(39.225769%,52.279663%,44.641113%);stop-opacity:1;"/>
<stop offset="0.09375" style="stop-color:rgb(39.053345%,52.052307%,44.450378%);stop-opacity:1;"/>
<stop offset="0.09991" style="stop-color:rgb(38.88092%,51.826477%,44.259644%);stop-opacity:1;"/>
<stop offset="0.109375" style="stop-color:rgb(38.795471%,51.713562%,44.165039%);stop-opacity:1;"/>
<stop offset="0.125" style="stop-color:rgb(38.710022%,51.599121%,44.068909%);stop-opacity:1;"/>
<stop offset="0.140625" style="stop-color:rgb(38.537598%,51.373291%,43.878174%);stop-opacity:1;"/>
<stop offset="0.15625" style="stop-color:rgb(38.365173%,51.145935%,43.687439%);stop-opacity:1;"/>
<stop offset="0.171875" style="stop-color:rgb(38.194275%,50.920105%,43.496704%);stop-opacity:1;"/>
<stop offset="0.1875" style="stop-color:rgb(38.021851%,50.692749%,43.305969%);stop-opacity:1;"/>
<stop offset="0.203125" style="stop-color:rgb(37.849426%,50.466919%,43.115234%);stop-opacity:1;"/>
<stop offset="0.21875" style="stop-color:rgb(37.678528%,50.239563%,42.9245%);stop-opacity:1;"/>
<stop offset="0.234375" style="stop-color:rgb(37.506104%,50.013733%,42.733765%);stop-opacity:1;"/>
<stop offset="0.25" style="stop-color:rgb(37.333679%,49.786377%,42.54303%);stop-opacity:1;"/>
<stop offset="0.265625" style="stop-color:rgb(37.162781%,49.560547%,42.352295%);stop-opacity:1;"/>
<stop offset="0.28125" style="stop-color:rgb(36.990356%,49.333191%,42.16156%);stop-opacity:1;"/>
<stop offset="0.296875" style="stop-color:rgb(36.819458%,49.107361%,41.972351%);stop-opacity:1;"/>
<stop offset="0.3125" style="stop-color:rgb(36.647034%,48.880005%,41.781616%);stop-opacity:1;"/>
<stop offset="0.328125" style="stop-color:rgb(36.474609%,48.654175%,41.590881%);stop-opacity:1;"/>
<stop offset="0.34375" style="stop-color:rgb(36.303711%,48.426819%,41.400146%);stop-opacity:1;"/>
<stop offset="0.359375" style="stop-color:rgb(36.131287%,48.200989%,41.209412%);stop-opacity:1;"/>
<stop offset="0.375" style="stop-color:rgb(35.958862%,47.973633%,41.018677%);stop-opacity:1;"/>
<stop offset="0.390625" style="stop-color:rgb(35.787964%,47.747803%,40.827942%);stop-opacity:1;"/>
<stop offset="0.40625" style="stop-color:rgb(35.61554%,47.520447%,40.637207%);stop-opacity:1;"/>
<stop offset="0.421875" style="stop-color:rgb(35.443115%,47.294617%,40.446472%);stop-opacity:1;"/>
<stop offset="0.4375" style="stop-color:rgb(35.272217%,47.067261%,40.255737%);stop-opacity:1;"/>
<stop offset="0.453125" style="stop-color:rgb(35.099792%,46.841431%,40.065002%);stop-opacity:1;"/>
<stop offset="0.46875" style="stop-color:rgb(34.927368%,46.614075%,39.874268%);stop-opacity:1;"/>
<stop offset="0.484375" style="stop-color:rgb(34.75647%,46.388245%,39.683533%);stop-opacity:1;"/>
<stop offset="0.5" style="stop-color:rgb(34.584045%,46.160889%,39.492798%);stop-opacity:1;"/>
<stop offset="0.515625" style="stop-color:rgb(34.411621%,45.935059%,39.302063%);stop-opacity:1;"/>
<stop offset="0.53125" style="stop-color:rgb(34.240723%,45.707703%,39.111328%);stop-opacity:1;"/>
<stop offset="0.546875" style="stop-color:rgb(34.068298%,45.481873%,38.920593%);stop-opacity:1;"/>
<stop offset="0.5625" style="stop-color:rgb(33.895874%,45.254517%,38.731384%);stop-opacity:1;"/>
<stop offset="0.578125" style="stop-color:rgb(33.724976%,45.028687%,38.540649%);stop-opacity:1;"/>
<stop offset="0.59375" style="stop-color:rgb(33.552551%,44.801331%,38.349915%);stop-opacity:1;"/>
<stop offset="0.609375" style="stop-color:rgb(33.381653%,44.5755%,38.15918%);stop-opacity:1;"/>
<stop offset="0.625" style="stop-color:rgb(33.209229%,44.348145%,37.968445%);stop-opacity:1;"/>
<stop offset="0.640625" style="stop-color:rgb(33.036804%,44.122314%,37.77771%);stop-opacity:1;"/>
<stop offset="0.65625" style="stop-color:rgb(32.865906%,43.894958%,37.586975%);stop-opacity:1;"/>
<stop offset="0.671875" style="stop-color:rgb(32.693481%,43.669128%,37.39624%);stop-opacity:1;"/>
<stop offset="0.6875" style="stop-color:rgb(32.521057%,43.441772%,37.205505%);stop-opacity:1;"/>
<stop offset="0.703125" style="stop-color:rgb(32.350159%,43.215942%,37.014771%);stop-opacity:1;"/>
<stop offset="0.71875" style="stop-color:rgb(32.177734%,42.988586%,36.824036%);stop-opacity:1;"/>
<stop offset="0.734375" style="stop-color:rgb(32.00531%,42.762756%,36.633301%);stop-opacity:1;"/>
<stop offset="0.75" style="stop-color:rgb(31.834412%,42.5354%,36.442566%);stop-opacity:1;"/>
<stop offset="0.765625" style="stop-color:rgb(31.661987%,42.30957%,36.251831%);stop-opacity:1;"/>
<stop offset="0.78125" style="stop-color:rgb(31.489563%,42.082214%,36.061096%);stop-opacity:1;"/>
<stop offset="0.796875" style="stop-color:rgb(31.318665%,41.856384%,35.870361%);stop-opacity:1;"/>
<stop offset="0.8125" style="stop-color:rgb(31.14624%,41.629028%,35.679626%);stop-opacity:1;"/>
<stop offset="0.828125" style="stop-color:rgb(30.973816%,41.403198%,35.490417%);stop-opacity:1;"/>
<stop offset="0.84375" style="stop-color:rgb(30.802917%,41.175842%,35.299683%);stop-opacity:1;"/>
<stop offset="0.859375" style="stop-color:rgb(30.630493%,40.950012%,35.108948%);stop-opacity:1;"/>
<stop offset="0.875" style="stop-color:rgb(30.458069%,40.722656%,34.918213%);stop-opacity:1;"/>
<stop offset="0.890625" style="stop-color:rgb(30.28717%,40.496826%,34.727478%);stop-opacity:1;"/>
<stop offset="0.90009" style="stop-color:rgb(30.114746%,40.26947%,34.536743%);stop-opacity:1;"/>
<stop offset="0.90625" style="stop-color:rgb(30.029297%,40.156555%,34.442139%);stop-opacity:1;"/>
<stop offset="0.921875" style="stop-color:rgb(29.942322%,40.04364%,34.346008%);stop-opacity:1;"/>
<stop offset="0.9375" style="stop-color:rgb(29.771423%,39.816284%,34.155273%);stop-opacity:1;"/>
<stop offset="0.953125" style="stop-color:rgb(29.598999%,39.590454%,33.964539%);stop-opacity:1;"/>
<stop offset="0.96875" style="stop-color:rgb(29.428101%,39.364624%,33.773804%);stop-opacity:1;"/>
<stop offset="0.984375" style="stop-color:rgb(29.255676%,39.137268%,33.583069%);stop-opacity:1;"/>
<stop offset="1" style="stop-color:rgb(29.084778%,38.911438%,33.39386%);stop-opacity:1;"/>
</linearGradient>
<clipPath id="clip3">
  <path d="M 58.5 258.75 C 58.5 257.398438 59.398438 256.5 60.75 256.5 L 164.25 256.5 C 165.148438 256.5 166.5 257.398438 166.5 258.75 L 166.5 290.25 C 166.5 291.148438 165.148438 292.5 164.25 292.5 L 60.75 292.5 C 59.398438 292.5 58.5 291.148438 58.5 290.25 Z M 58.5 258.75 "/>
</clipPath>
<linearGradient id="linear2" gradientUnits="userSpaceOnUse" x1="0" y1="0" x2="1" y2="0.332031" gradientTransform="matrix(108,0,0,108,58.5,256.5)">
<stop offset="0" style="stop-color:rgb(79.998779%,78.399658%,74.499512%);stop-opacity:1;"/>
<stop offset="0.03125" style="stop-color:rgb(79.852295%,78.233337%,74.304199%);stop-opacity:1;"/>
<stop offset="0.0625" style="stop-color:rgb(79.5578%,77.902222%,73.913574%);stop-opacity:1;"/>
<stop offset="0.09375" style="stop-color:rgb(79.264832%,77.571106%,73.522949%);stop-opacity:1;"/>
<stop offset="0.09991" style="stop-color:rgb(78.970337%,77.238464%,73.132324%);stop-opacity:1;"/>
<stop offset="0.125" style="stop-color:rgb(78.823853%,77.073669%,72.937012%);stop-opacity:1;"/>
<stop offset="0.15625" style="stop-color:rgb(78.677368%,76.907349%,72.741699%);stop-opacity:1;"/>
<stop offset="0.1875" style="stop-color:rgb(78.382874%,76.576233%,72.351074%);stop-opacity:1;"/>
<stop offset="0.21875" style="stop-color:rgb(78.089905%,76.245117%,71.960449%);stop-opacity:1;"/>
<stop offset="0.25" style="stop-color:rgb(77.79541%,75.914001%,71.569824%);stop-opacity:1;"/>
<stop offset="0.28125" style="stop-color:rgb(77.502441%,75.582886%,71.179199%);stop-opacity:1;"/>
<stop offset="0.3125" style="stop-color:rgb(77.207947%,75.25177%,70.788574%);stop-opacity:1;"/>
<stop offset="0.34375" style="stop-color:rgb(76.913452%,74.920654%,70.397949%);stop-opacity:1;"/>
<stop offset="0.375" style="stop-color:rgb(76.620483%,74.589539%,70.007324%);stop-opacity:1;"/>
<stop offset="0.390625" style="stop-color:rgb(76.400757%,74.34082%,69.714355%);stop-opacity:1;"/>
<stop offset="0.40625" style="stop-color:rgb(76.252747%,74.1745%,69.517517%);stop-opacity:1;"/>
<stop offset="0.4375" style="stop-color:rgb(76.03302%,73.925781%,69.224548%);stop-opacity:1;"/>
<stop offset="0.46875" style="stop-color:rgb(75.738525%,73.594666%,68.833923%);stop-opacity:1;"/>
<stop offset="0.5" style="stop-color:rgb(75.445557%,73.26355%,68.443298%);stop-opacity:1;"/>
<stop offset="0.53125" style="stop-color:rgb(75.151062%,72.932434%,68.052673%);stop-opacity:1;"/>
<stop offset="0.5625" style="stop-color:rgb(74.858093%,72.601318%,67.662048%);stop-opacity:1;"/>
<stop offset="0.59375" style="stop-color:rgb(74.563599%,72.270203%,67.271423%);stop-opacity:1;"/>
<stop offset="0.625" style="stop-color:rgb(74.27063%,71.939087%,66.880798%);stop-opacity:1;"/>
<stop offset="0.65625" style="stop-color:rgb(73.976135%,71.607971%,66.490173%);stop-opacity:1;"/>
<stop offset="0.6875" style="stop-color:rgb(73.683167%,71.27533%,66.099548%);stop-opacity:1;"/>
<stop offset="0.71875" style="stop-color:rgb(73.388672%,70.944214%,65.708923%);stop-opacity:1;"/>
<stop offset="0.75" style="stop-color:rgb(73.095703%,70.613098%,65.318298%);stop-opacity:1;"/>
<stop offset="0.78125" style="stop-color:rgb(72.801208%,70.281982%,64.927673%);stop-opacity:1;"/>
<stop offset="0.8125" style="stop-color:rgb(72.506714%,69.950867%,64.537048%);stop-opacity:1;"/>
<stop offset="0.84375" style="stop-color:rgb(72.213745%,69.619751%,64.146423%);stop-opacity:1;"/>
<stop offset="0.875" style="stop-color:rgb(71.91925%,69.288635%,63.755798%);stop-opacity:1;"/>
<stop offset="0.90009" style="stop-color:rgb(71.626282%,68.95752%,63.365173%);stop-opacity:1;"/>
<stop offset="0.90625" style="stop-color:rgb(71.479797%,68.792725%,63.169861%);stop-opacity:1;"/>
<stop offset="0.9375" style="stop-color:rgb(71.331787%,68.626404%,62.974548%);stop-opacity:1;"/>
<stop offset="0.96875" style="stop-color:rgb(71.038818%,68.293762%,62.583923%);stop-opacity:1;"/>
<stop offset="1" style="stop-color:rgb(70.74585%,67.964172%,62.193298%);stop-opacity:1;"/>
</linearGradient>
<clipPath id="clip4">
  <path d="M 292.5 42.75 C 293.398438 42.75 294.75 41.714844 294.75 40.5 C 294.75 39.238281 293.398438 38.25 292.5 38.25 C 291.148438 38.25 290.25 39.238281 290.25 40.5 C 290.25 41.714844 291.148438 42.75 292.5 42.75 Z M 292.5 42.75 "/>
</clipPath>
<clipPath id="clip5">
  <path d="M 238.5 6.75 C 238.5 5.488281 239.398438 4.5 240.75 4.5 L 344.25 4.5 C 345.148438 4.5 346.5 5.488281 346.5 6.75 L 346.5 38.25 C 346.5 39.511719 345.148438 40.5 344.25 40.5 L 240.75 40.5 C 239.398438 40.5 238.5 39.511719 238.5 38.25 Z M 238.5 6.75 "/>
</clipPath>
<linearGradient id="linear3" gradientUnits="userSpaceOnUse" x1="0.523438" y1="0.175781" x2="0.570312" y2="0.1875" gradientTransform="matrix(108,0,0,108,238.5,4.5)">
<stop offset="0" style="stop-color:rgb(54.699707%,69.12384%,78.814697%);stop-opacity:1;"/>
<stop offset="0.142735" style="stop-color:rgb(54.524231%,69.003296%,78.733826%);stop-opacity:1;"/>
<stop offset="0.5" style="stop-color:rgb(54.348755%,68.882751%,78.652954%);stop-opacity:1;"/>
<stop offset="0.857265" style="stop-color:rgb(54.173279%,68.762207%,78.570557%);stop-opacity:1;"/>
<stop offset="1" style="stop-color:rgb(53.999329%,68.643188%,78.489685%);stop-opacity:1;"/>
</linearGradient>
<clipPath id="clip6">
  <path d="M 292.5 42.75 C 293.398438 42.75 294.75 41.714844 294.75 40.5 C 294.75 39.238281 293.398438 38.25 292.5 38.25 C 291.148438 38.25 290.25 39.238281 290.25 40.5 C 290.25 41.714844 291.148438 42.75 292.5 42.75 Z M 292.5 42.75 "/>
</clipPath>
<clipPath id="clip7">
  <path d="M 112.5 258.75 C 113.398438 258.75 114.75 257.398438 114.75 256.5 C 114.75 255.148438 113.398438 254.25 112.5 254.25 C 111.148438 254.25 110.25 255.148438 110.25 256.5 C 110.25 257.398438 111.148438 258.75 112.5 258.75 Z M 112.5 258.75 "/>
</clipPath>
<clipPath id="clip8">
  <path d="M 58.5 258.75 C 58.5 257.398438 59.398438 256.5 60.75 256.5 L 164.25 256.5 C 165.148438 256.5 166.5 257.398438 166.5 258.75 L 166.5 290.25 C 166.5 291.148438 165.148438 292.5 164.25 292.5 L 60.75 292.5 C 59.398438 292.5 58.5 291.148438 58.5 290.25 Z M 58.5 258.75 "/>
</clipPath>
<linearGradient id="linear4" gradientUnits="userSpaceOnUse" x1="0.429688" y1="0.144531" x2="0.476562" y2="0.160156" gradientTransform="matrix(108,0,0,108,58.5,256.5)">
<stop offset="0" style="stop-color:rgb(75.944519%,73.826599%,69.107056%);stop-opacity:1;"/>
<stop offset="0.142735" style="stop-color:rgb(75.840759%,73.710632%,68.969727%);stop-opacity:1;"/>
<stop offset="0.5" style="stop-color:rgb(75.738525%,73.594666%,68.833923%);stop-opacity:1;"/>
<stop offset="0.857265" style="stop-color:rgb(75.636292%,73.478699%,68.696594%);stop-opacity:1;"/>
<stop offset="1" style="stop-color:rgb(75.534058%,73.362732%,68.560791%);stop-opacity:1;"/>
</linearGradient>
<clipPath id="clip9">
  <path d="M 112.5 258.75 C 113.398438 258.75 114.75 257.398438 114.75 256.5 C 114.75 255.148438 113.398438 254.25 112.5 254.25 C 111.148438 254.25 110.25 255.148438 110.25 256.5 C 110.25 257.398438 111.148438 258.75 112.5 258.75 Z M 112.5 258.75 "/>
</clipPath>
<clipPath id="clip10">
  <path d="M 166.5 276.75 C 167.398438 276.75 168.75 275.398438 168.75 274.5 C 168.75 273.148438 167.398438 272.25 166.5 272.25 C 165.148438 272.25 164.25 273.148438 164.25 274.5 C 164.25 275.398438 165.148438 276.75 166.5 276.75 Z M 166.5 276.75 "/>
</clipPath>
<clipPath id="clip11">
  <path d="M 58.5 258.75 C 58.5 257.398438 59.398438 256.5 60.75 256.5 L 164.25 256.5 C 165.148438 256.5 166.5 257.398438 166.5 258.75 L 166.5 290.25 C 166.5 291.148438 165.148438 292.5 164.25 292.5 L 60.75 292.5 C 59.398438 292.5 58.5 291.148438 58.5 290.25 Z M 58.5 258.75 "/>
</clipPath>
<linearGradient id="linear5" gradientUnits="userSpaceOnUse" x1="0.925781" y1="0.308594" x2="0.957031" y2="0.320312" gradientTransform="matrix(108,0,0,108,58.5,256.5)">
<stop offset="0" style="stop-color:rgb(71.302795%,68.592834%,62.934875%);stop-opacity:1;"/>
<stop offset="0.39976" style="stop-color:rgb(71.229553%,68.508911%,62.837219%);stop-opacity:1;"/>
<stop offset="0.5" style="stop-color:rgb(71.156311%,68.426514%,62.739563%);stop-opacity:1;"/>
<stop offset="0.60024" style="stop-color:rgb(71.083069%,68.344116%,62.641907%);stop-opacity:1;"/>
<stop offset="1" style="stop-color:rgb(71.009827%,68.261719%,62.54425%);stop-opacity:1;"/>
</linearGradient>
<clipPath id="clip12">
  <path d="M 166.5 276.75 C 167.398438 276.75 168.75 275.398438 168.75 274.5 C 168.75 273.148438 167.398438 272.25 166.5 272.25 C 165.148438 272.25 164.25 273.148438 164.25 274.5 C 164.25 275.398438 165.148438 276.75 166.5 276.75 Z M 166.5 276.75 "/>
</clipPath>
<clipPath id="clip13">
  <path d="M 418.5 276.75 C 419.398438 276.75 420.75 275.398438 420.75 274.5 C 420.75 273.148438 419.398438 272.25 418.5 272.25 C 417.148438 272.25 416.25 273.148438 416.25 274.5 C 416.25 275.398438 417.148438 276.75 418.5 276.75 Z M 418.5 276.75 "/>
</clipPath>
<clipPath id="clip14">
  <path d="M 418.5 258.75 C 418.5 257.398438 419.398438 256.5 420.75 256.5 L 524.25 256.5 C 525.148438 256.5 526.5 257.398438 526.5 258.75 L 526.5 290.25 C 526.5 291.148438 525.148438 292.5 524.25 292.5 L 420.75 292.5 C 419.398438 292.5 418.5 291.148438 418.5 290.25 Z M 418.5 258.75 "/>
</clipPath>
<linearGradient id="linear6" gradientUnits="userSpaceOnUse" x1="0.0429688" y1="0.015625" x2="0.0742188" y2="0.0234375" gradientTransform="matrix(108,0,0,108,418.5,256.5)">
<stop offset="0" style="stop-color:rgb(39.518738%,52.66571%,44.966125%);stop-opacity:1;"/>
<stop offset="0.39976" style="stop-color:rgb(39.431763%,52.55127%,44.869995%);stop-opacity:1;"/>
<stop offset="0.5" style="stop-color:rgb(39.346313%,52.438354%,44.775391%);stop-opacity:1;"/>
<stop offset="0.60024" style="stop-color:rgb(39.260864%,52.325439%,44.67926%);stop-opacity:1;"/>
<stop offset="1" style="stop-color:rgb(39.175415%,52.212524%,44.584656%);stop-opacity:1;"/>
</linearGradient>
<clipPath id="clip15">
  <path d="M 418.5 276.75 C 419.398438 276.75 420.75 275.398438 420.75 274.5 C 420.75 273.148438 419.398438 272.25 418.5 272.25 C 417.148438 272.25 416.25 273.148438 416.25 274.5 C 416.25 275.398438 417.148438 276.75 418.5 276.75 Z M 418.5 276.75 "/>
</clipPath>
<clipPath id="clip16">
  <path d="M 472.5 258.75 C 473.398438 258.75 474.75 257.398438 474.75 256.5 C 474.75 255.148438 473.398438 254.25 472.5 254.25 C 471.148438 254.25 470.25 255.148438 470.25 256.5 C 470.25 257.398438 471.148438 258.75 472.5 258.75 Z M 472.5 258.75 "/>
</clipPath>
<clipPath id="clip17">
  <path d="M 418.5 258.75 C 418.5 257.398438 419.398438 256.5 420.75 256.5 L 524.25 256.5 C 525.148438 256.5 526.5 257.398438 526.5 258.75 L 526.5 290.25 C 526.5 291.148438 525.148438 292.5 524.25 292.5 L 420.75 292.5 C 419.398438 292.5 418.5 291.148438 418.5 290.25 Z M 418.5 258.75 "/>
</clipPath>
<linearGradient id="linear7" gradientUnits="userSpaceOnUse" x1="0.429688" y1="0.144531" x2="0.476562" y2="0.160156" gradientTransform="matrix(108,0,0,108,418.5,256.5)">
<stop offset="0" style="stop-color:rgb(35.253906%,47.044373%,40.237427%);stop-opacity:1;"/>
<stop offset="0.142735" style="stop-color:rgb(35.133362%,46.885681%,40.103149%);stop-opacity:1;"/>
<stop offset="0.5" style="stop-color:rgb(35.014343%,46.72699%,39.970398%);stop-opacity:1;"/>
<stop offset="0.857265" style="stop-color:rgb(34.893799%,46.568298%,39.836121%);stop-opacity:1;"/>
<stop offset="1" style="stop-color:rgb(34.773254%,46.411133%,39.703369%);stop-opacity:1;"/>
</linearGradient>
<clipPath id="clip18">
  <path d="M 472.5 258.75 C 473.398438 258.75 474.75 257.398438 474.75 256.5 C 474.75 255.148438 473.398438 254.25 472.5 254.25 C 471.148438 254.25 470.25 255.148438 470.25 256.5 C 470.25 257.398438 471.148438 258.75 472.5 258.75 Z M 472.5 258.75 "/>
</clipPath>
<clipPath id="clip19">
  <path d="M 292.5 42.75 C 293.398438 42.75 294.75 41.714844 294.75 40.5 C 294.75 39.238281 293.398438 38.25 292.5 38.25 C 291.148438 38.25 290.25 39.238281 290.25 40.5 C 290.25 41.714844 291.148438 42.75 292.5 42.75 Z M 292.5 42.75 "/>
</clipPath>
<clipPath id="clip20">
  <path d="M 238.5 6.75 C 238.5 5.488281 239.398438 4.5 240.75 4.5 L 344.25 4.5 C 345.148438 4.5 346.5 5.488281 346.5 6.75 L 346.5 38.25 C 346.5 39.511719 345.148438 40.5 344.25 40.5 L 240.75 40.5 C 239.398438 40.5 238.5 39.511719 238.5 38.25 Z M 238.5 6.75 "/>
</clipPath>
<linearGradient id="linear8" gradientUnits="userSpaceOnUse" x1="0.523438" y1="0.175781" x2="0.570312" y2="0.1875" gradientTransform="matrix(108,0,0,108,238.5,4.5)">
<stop offset="0" style="stop-color:rgb(54.699707%,69.12384%,78.814697%);stop-opacity:1;"/>
<stop offset="0.142735" style="stop-color:rgb(54.524231%,69.003296%,78.733826%);stop-opacity:1;"/>
<stop offset="0.5" style="stop-color:rgb(54.348755%,68.882751%,78.652954%);stop-opacity:1;"/>
<stop offset="0.857265" style="stop-color:rgb(54.173279%,68.762207%,78.570557%);stop-opacity:1;"/>
<stop offset="1" style="stop-color:rgb(53.999329%,68.643188%,78.489685%);stop-opacity:1;"/>
</linearGradient>
<clipPath id="clip21">
  <path d="M 292.5 42.75 C 293.398438 42.75 294.75 41.714844 294.75 40.5 C 294.75 39.238281 293.398438 38.25 292.5 38.25 C 291.148438 38.25 290.25 39.238281 290.25 40.5 C 290.25 41.714844 291.148438 42.75 292.5 42.75 Z M 292.5 42.75 "/>
</clipPath>
</defs>
<g id="surface1">
<rect x="0" y="0" width="586" height="391" style="fill:rgb(100%,100%,100%);fill-opacity:1;stroke:none;"/>
<g clip-path="url(#clip1)" clip-rule="nonzero">
<path style=" stroke:none;fill-rule:nonzero;fill:url(#linear0);" d="M 238.5 4.5 L 238.5 40.5 L 346.5 40.5 L 346.5 4.5 Z M 238.5 4.5 "/>
</g>
<path style="fill:none;stroke-width:7;stroke-linecap:butt;stroke-linejoin:miter;stroke:rgb(0%,0%,0%);stroke-opacity:1;stroke-miterlimit:10;" d="M 530 15 C 530 12.196181 531.996528 10 535 10 L 765 10 C 766.996528 10 770 12.196181 770 15 L 770 85 C 770 87.803819 766.996528 90 765 90 L 535 90 C 531.996528 90 530 87.803819 530 85 Z M 530 15 " transform="matrix(0.45,0,0,0.45,0,0)"/>
<path style=" stroke:none;fill-rule:nonzero;fill:rgb(0%,0%,0%);fill-opacity:1;" d="M 276.828125 24.886719 L 275.894531 22.488281 L 272.132812 22.488281 L 271.199219 24.886719 L 270.035156 24.886719 L 273.398438 16.625 L 274.660156 16.625 L 277.957031 24.886719 Z M 275.5625 21.589844 L 273.996094 17.492188 C 273.597656 18.992188 272.964844 20.222656 272.464844 21.589844 L 275.5625 21.589844 "/>
<path style=" stroke:none;fill-rule:nonzero;fill:rgb(0%,0%,0%);fill-opacity:1;" d="M 282.6875 23.6875 C 282.1875 24.386719 281.65625 25.050781 280.421875 25.019531 C 279.222656 24.984375 278.492188 24.320312 278.492188 23.121094 C 278.457031 20.988281 280.589844 21.023438 282.652344 21.023438 C 282.753906 19.855469 282.355469 19.222656 281.289062 19.222656 C 280.488281 19.257812 279.921875 19.457031 279.890625 20.257812 L 278.792969 20.15625 C 278.957031 18.925781 279.890625 18.425781 281.320312 18.425781 C 282.820312 18.425781 283.71875 19.089844 283.71875 20.554688 L 283.71875 23.285156 C 283.6875 23.953125 283.953125 24.351562 284.652344 24.1875 L 284.652344 24.851562 C 283.621094 25.152344 282.621094 24.785156 282.6875 23.6875 Z M 279.589844 23.121094 C 279.589844 23.785156 279.988281 24.21875 280.65625 24.21875 C 282.019531 24.117188 282.753906 23.253906 282.652344 21.753906 C 281.222656 21.820312 279.589844 21.589844 279.589844 23.121094 "/>
<path style=" stroke:none;fill-rule:nonzero;fill:rgb(0%,0%,0%);fill-opacity:1;" d="M 293.894531 18.558594 C 293.5625 22.71875 295.257812 28.316406 290.230469 27.25 C 289.464844 27.050781 288.964844 26.582031 288.765625 25.816406 L 289.832031 25.652344 C 290.332031 27.214844 293.160156 26.714844 292.796875 24.71875 L 292.796875 23.71875 C 292.429688 24.417969 291.828125 24.917969 290.765625 24.917969 C 288.964844 24.917969 288.5 23.554688 288.5 21.722656 C 288.5 19.855469 289.03125 18.492188 290.863281 18.457031 C 291.828125 18.425781 292.460938 18.992188 292.828125 19.625 C 292.863281 19.289062 292.828125 18.859375 292.894531 18.558594 Z M 291.128906 24.152344 C 292.328125 24.152344 292.796875 23.085938 292.796875 21.722656 C 292.796875 20.324219 292.328125 19.222656 291.128906 19.222656 C 289.832031 19.222656 289.597656 20.355469 289.597656 21.722656 C 289.597656 23.085938 289.796875 24.152344 291.128906 24.152344 "/>
<path style=" stroke:none;fill-rule:nonzero;fill:rgb(0%,0%,0%);fill-opacity:1;" d="M 297.988281 18.425781 C 300.089844 18.425781 300.855469 19.824219 300.789062 21.953125 L 296.292969 21.953125 C 296.292969 23.285156 296.757812 24.1875 298.054688 24.21875 C 298.921875 24.253906 299.488281 23.820312 299.6875 23.253906 L 300.621094 23.519531 C 300.253906 24.453125 299.386719 25.019531 298.054688 25.019531 C 296.125 25.019531 295.125 23.785156 295.160156 21.6875 C 295.191406 19.65625 296.023438 18.425781 297.988281 18.425781 Z M 299.722656 21.121094 C 299.921875 19.125 297.191406 18.558594 296.492188 20.191406 C 296.390625 20.421875 296.292969 20.753906 296.292969 21.121094 L 299.722656 21.121094 "/>
<path style=" stroke:none;fill-rule:nonzero;fill:rgb(0%,0%,0%);fill-opacity:1;" d="M 305.214844 18.425781 C 308.179688 18.292969 306.980469 22.289062 307.214844 24.886719 L 306.148438 24.886719 L 306.148438 20.855469 C 306.148438 19.824219 305.882812 19.222656 304.851562 19.257812 C 302.453125 19.324219 303.382812 22.652344 303.21875 24.886719 L 302.152344 24.886719 L 302.121094 18.558594 L 303.117188 18.558594 C 303.152344 18.890625 303.085938 19.355469 303.183594 19.625 C 303.550781 18.890625 304.152344 18.457031 305.214844 18.425781 "/>
<path style=" stroke:none;fill-rule:nonzero;fill:rgb(0%,0%,0%);fill-opacity:1;" d="M 311.308594 18.425781 C 313.40625 18.425781 314.171875 19.824219 314.105469 21.953125 L 309.613281 21.953125 C 309.613281 23.285156 310.078125 24.1875 311.375 24.21875 C 312.242188 24.253906 312.808594 23.820312 313.007812 23.253906 L 313.941406 23.519531 C 313.574219 24.453125 312.707031 25.019531 311.375 25.019531 C 309.445312 25.019531 308.445312 23.785156 308.480469 21.6875 C 308.511719 19.65625 309.34375 18.425781 311.308594 18.425781 Z M 313.042969 21.121094 C 313.242188 19.125 310.511719 18.558594 309.8125 20.191406 C 309.710938 20.421875 309.613281 20.753906 309.613281 21.121094 L 313.042969 21.121094 "/>
<g clip-path="url(#clip2)" clip-rule="nonzero">
<path style=" stroke:none;fill-rule:nonzero;fill:url(#linear1);" d="M 418.5 256.5 L 418.5 292.5 L 526.5 292.5 L 526.5 256.5 Z M 418.5 256.5 "/>
</g>
<path style="fill:none;stroke-width:7;stroke-linecap:butt;stroke-linejoin:miter;stroke:rgb(0%,0%,0%);stroke-opacity:1;stroke-miterlimit:10;" d="M 930 575 C 930 571.996528 931.996528 570 935 570 L 1165 570 C 1166.996528 570 1170 571.996528 1170 575 L 1170 645 C 1170 646.996528 1166.996528 650 1165 650 L 935 650 C 931.996528 650 930 646.996528 930 645 Z M 930 575 " transform="matrix(0.45,0,0,0.45,0,0)"/>
<path style=" stroke:none;fill-rule:nonzero;fill:rgb(0%,0%,0%);fill-opacity:1;" d="M 456.609375 270.789062 C 456.277344 269.855469 455.445312 269.289062 454.179688 269.289062 C 452.214844 269.289062 451.28125 270.621094 451.28125 272.585938 C 451.28125 274.585938 452.246094 275.949219 454.246094 275.949219 C 455.675781 275.949219 456.308594 275.152344 456.84375 274.21875 L 457.742188 274.683594 C 457.140625 275.949219 456.042969 276.882812 454.179688 276.882812 C 451.515625 276.882812 450.28125 275.21875 450.148438 272.585938 C 449.949219 269.125 453.445312 267.492188 456.375 268.890625 C 457.007812 269.191406 457.410156 269.757812 457.675781 270.421875 "/>
<path style=" stroke:none;fill-rule:nonzero;fill:rgb(0%,0%,0%);fill-opacity:1;" d="M 463.003906 275.71875 C 462.636719 276.449219 462.039062 276.882812 461.003906 276.882812 C 459.242188 276.882812 458.707031 275.585938 458.675781 273.621094 C 458.675781 271.65625 459.242188 270.324219 461.003906 270.289062 C 462.070312 270.257812 462.605469 270.757812 463.003906 271.390625 C 463.003906 271.023438 462.96875 270.589844 463.070312 270.324219 L 464.070312 270.324219 L 464.035156 279.246094 L 462.96875 279.246094 Z M 461.273438 276.050781 C 462.636719 276.050781 462.96875 274.953125 462.96875 273.519531 C 462.96875 272.089844 462.703125 271.089844 461.304688 271.089844 C 459.972656 271.089844 459.773438 272.253906 459.773438 273.585938 C 459.773438 274.917969 459.941406 276.050781 461.273438 276.050781 "/>
<path style=" stroke:none;fill-rule:nonzero;fill:rgb(0%,0%,0%);fill-opacity:1;" d="M 474.34375 270.421875 C 474.011719 274.585938 475.710938 280.179688 470.679688 279.113281 C 469.914062 278.914062 469.414062 278.449219 469.214844 277.683594 L 470.28125 277.515625 C 470.78125 279.082031 473.613281 278.582031 473.246094 276.582031 L 473.246094 275.585938 C 472.878906 276.285156 472.28125 276.785156 471.214844 276.785156 C 469.414062 276.785156 468.949219 275.417969 468.949219 273.585938 C 468.949219 271.722656 469.480469 270.355469 471.3125 270.324219 C 472.28125 270.289062 472.914062 270.855469 473.277344 271.488281 C 473.3125 271.15625 473.277344 270.722656 473.34375 270.421875 Z M 471.582031 276.015625 C 472.777344 276.015625 473.246094 274.953125 473.246094 273.585938 C 473.246094 272.1875 472.777344 271.089844 471.582031 271.089844 C 470.28125 271.089844 470.046875 272.222656 470.046875 273.585938 C 470.046875 274.953125 470.25 276.015625 471.582031 276.015625 "/>
<path style=" stroke:none;fill-rule:nonzero;fill:rgb(0%,0%,0%);fill-opacity:1;" d="M 478.441406 270.289062 C 480.539062 270.289062 481.304688 271.6875 481.238281 273.820312 L 476.742188 273.820312 C 476.742188 275.152344 477.207031 276.050781 478.507812 276.085938 C 479.371094 276.117188 479.9375 275.683594 480.136719 275.117188 L 481.070312 275.382812 C 480.703125 276.316406 479.839844 276.882812 478.507812 276.882812 C 476.574219 276.882812 475.578125 275.652344 475.609375 273.554688 C 475.644531 271.523438 476.476562 270.289062 478.441406 270.289062 Z M 480.171875 272.988281 C 480.371094 270.988281 477.640625 270.421875 476.941406 272.054688 C 476.839844 272.289062 476.742188 272.621094 476.742188 272.988281 L 480.171875 272.988281 "/>
<path style=" stroke:none;fill-rule:nonzero;fill:rgb(0%,0%,0%);fill-opacity:1;" d="M 485.667969 270.289062 C 488.628906 270.15625 487.429688 274.152344 487.664062 276.75 L 486.597656 276.75 L 486.597656 272.71875 C 486.597656 271.6875 486.332031 271.089844 485.300781 271.121094 C 482.902344 271.1875 483.835938 274.519531 483.667969 276.75 L 482.601562 276.75 L 482.570312 270.421875 L 483.566406 270.421875 C 483.601562 270.757812 483.535156 271.222656 483.636719 271.488281 C 484 270.757812 484.601562 270.324219 485.667969 270.289062 "/>
<path style=" stroke:none;fill-rule:nonzero;fill:rgb(0%,0%,0%);fill-opacity:1;" d="M 491.761719 270.289062 C 493.859375 270.289062 494.625 271.6875 494.558594 273.820312 L 490.0625 273.820312 C 490.0625 275.152344 490.527344 276.050781 491.828125 276.085938 C 492.691406 276.117188 493.257812 275.683594 493.457031 275.117188 L 494.390625 275.382812 C 494.023438 276.316406 493.160156 276.882812 491.828125 276.882812 C 489.894531 276.882812 488.894531 275.652344 488.929688 273.554688 C 488.960938 271.523438 489.796875 270.289062 491.761719 270.289062 Z M 493.492188 272.988281 C 493.691406 270.988281 490.960938 270.421875 490.261719 272.054688 C 490.160156 272.289062 490.0625 272.621094 490.0625 272.988281 L 493.492188 272.988281 "/>
<g clip-path="url(#clip3)" clip-rule="nonzero">
<path style=" stroke:none;fill-rule:nonzero;fill:url(#linear2);" d="M 58.5 256.5 L 58.5 292.5 L 166.5 292.5 L 166.5 256.5 Z M 58.5 256.5 "/>
</g>
<path style="fill:none;stroke-width:7;stroke-linecap:butt;stroke-linejoin:miter;stroke:rgb(0%,0%,0%);stroke-opacity:1;stroke-miterlimit:10;" d="M 130 575 C 130 571.996528 131.996528 570 135 570 L 365 570 C 366.996528 570 370 571.996528 370 575 L 370 645 C 370 646.996528 366.996528 650 365 650 L 135 650 C 131.996528 650 130 646.996528 130 645 Z M 130 575 " transform="matrix(0.45,0,0,0.45,0,0)"/>
<path style=" stroke:none;fill-rule:nonzero;fill:rgb(0%,0%,0%);fill-opacity:1;" d="M 96.828125 276.75 L 95.894531 274.351562 L 92.132812 274.351562 L 91.199219 276.75 L 90.035156 276.75 L 93.398438 268.492188 L 94.660156 268.492188 L 97.957031 276.75 Z M 95.5625 273.453125 L 93.996094 269.355469 C 93.597656 270.855469 92.964844 272.089844 92.464844 273.453125 L 95.5625 273.453125 "/>
<path style=" stroke:none;fill-rule:nonzero;fill:rgb(0%,0%,0%);fill-opacity:1;" d="M 103.886719 270.421875 C 103.554688 274.585938 105.25 280.179688 100.222656 279.113281 C 99.457031 278.914062 98.957031 278.449219 98.757812 277.683594 L 99.824219 277.515625 C 100.324219 279.082031 103.152344 278.582031 102.789062 276.582031 L 102.789062 275.585938 C 102.421875 276.285156 101.820312 276.785156 100.757812 276.785156 C 98.957031 276.785156 98.492188 275.417969 98.492188 273.585938 C 98.492188 271.722656 99.023438 270.355469 100.855469 270.324219 C 101.820312 270.289062 102.453125 270.855469 102.820312 271.488281 C 102.855469 271.15625 102.820312 270.722656 102.886719 270.421875 Z M 101.121094 276.015625 C 102.320312 276.015625 102.789062 274.953125 102.789062 273.585938 C 102.789062 272.1875 102.320312 271.089844 101.121094 271.089844 C 99.824219 271.089844 99.589844 272.222656 99.589844 273.585938 C 99.589844 274.953125 99.789062 276.015625 101.121094 276.015625 "/>
<path style=" stroke:none;fill-rule:nonzero;fill:rgb(0%,0%,0%);fill-opacity:1;" d="M 113.894531 270.421875 C 113.5625 274.585938 115.257812 280.179688 110.230469 279.113281 C 109.464844 278.914062 108.964844 278.449219 108.765625 277.683594 L 109.832031 277.515625 C 110.332031 279.082031 113.160156 278.582031 112.796875 276.582031 L 112.796875 275.585938 C 112.429688 276.285156 111.828125 276.785156 110.765625 276.785156 C 108.964844 276.785156 108.5 275.417969 108.5 273.585938 C 108.5 271.722656 109.03125 270.355469 110.863281 270.324219 C 111.828125 270.289062 112.460938 270.855469 112.828125 271.488281 C 112.863281 271.15625 112.828125 270.722656 112.894531 270.421875 Z M 111.128906 276.015625 C 112.328125 276.015625 112.796875 274.953125 112.796875 273.585938 C 112.796875 272.1875 112.328125 271.089844 111.128906 271.089844 C 109.832031 271.089844 109.597656 272.222656 109.597656 273.585938 C 109.597656 274.953125 109.796875 276.015625 111.128906 276.015625 "/>
<path style=" stroke:none;fill-rule:nonzero;fill:rgb(0%,0%,0%);fill-opacity:1;" d="M 117.988281 270.289062 C 120.089844 270.289062 120.855469 271.6875 120.789062 273.820312 L 116.292969 273.820312 C 116.292969 275.152344 116.757812 276.050781 118.054688 276.085938 C 118.921875 276.117188 119.488281 275.683594 119.6875 275.117188 L 120.621094 275.382812 C 120.253906 276.316406 119.386719 276.882812 118.054688 276.882812 C 116.125 276.882812 115.125 275.652344 115.160156 273.554688 C 115.191406 271.523438 116.023438 270.289062 117.988281 270.289062 Z M 119.722656 272.988281 C 119.921875 270.988281 117.191406 270.421875 116.492188 272.054688 C 116.390625 272.289062 116.292969 272.621094 116.292969 272.988281 L 119.722656 272.988281 "/>
<path style=" stroke:none;fill-rule:nonzero;fill:rgb(0%,0%,0%);fill-opacity:1;" d="M 125.214844 270.289062 C 128.179688 270.15625 126.980469 274.152344 127.214844 276.75 L 126.148438 276.75 L 126.148438 272.71875 C 126.148438 271.6875 125.882812 271.089844 124.851562 271.121094 C 122.453125 271.1875 123.382812 274.519531 123.21875 276.75 L 122.152344 276.75 L 122.121094 270.421875 L 123.117188 270.421875 C 123.152344 270.757812 123.085938 271.222656 123.183594 271.488281 C 123.550781 270.757812 124.152344 270.324219 125.214844 270.289062 "/>
<path style=" stroke:none;fill-rule:nonzero;fill:rgb(0%,0%,0%);fill-opacity:1;" d="M 131.308594 270.289062 C 133.40625 270.289062 134.171875 271.6875 134.105469 273.820312 L 129.613281 273.820312 C 129.613281 275.152344 130.078125 276.050781 131.375 276.085938 C 132.242188 276.117188 132.808594 275.683594 133.007812 275.117188 L 133.941406 275.382812 C 133.574219 276.316406 132.707031 276.882812 131.375 276.882812 C 129.445312 276.882812 128.445312 275.652344 128.480469 273.554688 C 128.511719 271.523438 129.34375 270.289062 131.308594 270.289062 Z M 133.042969 272.988281 C 133.242188 270.988281 130.511719 270.421875 129.8125 272.054688 C 129.710938 272.289062 129.613281 272.621094 129.613281 272.988281 L 133.042969 272.988281 "/>
<path style="fill:none;stroke-width:7;stroke-linecap:butt;stroke-linejoin:miter;stroke:rgb(0%,0%,0%);stroke-opacity:1;stroke-miterlimit:10;" d="M 650 90 L 250 570 " transform="matrix(0.45,0,0,0.45,0,0)"/>
<path style="fill:none;stroke-width:7;stroke-linecap:butt;stroke-linejoin:miter;stroke:rgb(0%,0%,0%);stroke-opacity:1;stroke-miterlimit:10;" d="M 650 90 L 650.998264 87.699653 " transform="matrix(0.45,0,0,0.45,0,0)"/>
<path style="fill:none;stroke-width:7;stroke-linecap:butt;stroke-linejoin:miter;stroke:rgb(0%,0%,0%);stroke-opacity:1;stroke-miterlimit:10;" d="M 250 570 L 248.003472 571.996528 " transform="matrix(0.45,0,0,0.45,0,0)"/>
<g clip-path="url(#clip4)" clip-rule="nonzero">
<g clip-path="url(#clip5)" clip-rule="nonzero">
<path style=" stroke:none;fill-rule:nonzero;fill:url(#linear3);" d="M 290.25 38.25 L 290.25 40.5 L 294.75 40.5 L 294.75 38.25 Z M 290.25 38.25 "/>
</g>
</g>
<g clip-path="url(#clip6)" clip-rule="nonzero">
<path style="fill:none;stroke-width:7;stroke-linecap:butt;stroke-linejoin:miter;stroke:rgb(0%,0%,0%);stroke-opacity:1;stroke-miterlimit:10;" d="M 530 15 C 530 12.196181 531.996528 10 535 10 L 765 10 C 766.996528 10 770 12.196181 770 15 L 770 85 C 770 87.803819 766.996528 90 765 90 L 535 90 C 531.996528 90 530 87.803819 530 85 Z M 530 15 " transform="matrix(0.45,0,0,0.45,0,0)"/>
</g>
<g clip-path="url(#clip7)" clip-rule="nonzero">
<g clip-path="url(#clip8)" clip-rule="nonzero">
<path style=" stroke:none;fill-rule:nonzero;fill:url(#linear4);" d="M 110.25 256.5 L 110.25 258.75 L 114.75 258.75 L 114.75 256.5 Z M 110.25 256.5 "/>
</g>
</g>
<g clip-path="url(#clip9)" clip-rule="nonzero">
<path style="fill:none;stroke-width:7;stroke-linecap:butt;stroke-linejoin:miter;stroke:rgb(0%,0%,0%);stroke-opacity:1;stroke-miterlimit:10;" d="M 130 575 C 130 571.996528 131.996528 570 135 570 L 365 570 C 366.996528 570 370 571.996528 370 575 L 370 645 C 370 646.996528 366.996528 650 365 650 L 135 650 C 131.996528 650 130 646.996528 130 645 Z M 130 575 " transform="matrix(0.45,0,0,0.45,0,0)"/>
</g>
<path style=" stroke:none;fill-rule:nonzero;fill:rgb(100%,100%,100%);fill-opacity:1;" d="M 170.550781 143.550781 L 234 143.550781 L 234 153.449219 L 170.550781 153.449219 Z M 170.550781 143.550781 "/>
<path style=" stroke:none;fill-rule:nonzero;fill:rgb(0%,0%,0%);fill-opacity:1;" d="M 171.449219 153 L 171.449219 152.101562 L 173.582031 152.101562 L 173.582031 145.773438 L 171.714844 147.074219 L 171.714844 146.105469 L 173.648438 144.742188 L 174.613281 144.742188 L 174.613281 152.101562 L 176.644531 152.101562 L 176.644531 153 L 171.449219 153 "/>
<path style=" stroke:none;fill-rule:nonzero;fill:rgb(0%,0%,0%);fill-opacity:1;" d="M 178.308594 147.871094 L 178.308594 146.671875 L 179.441406 146.671875 L 179.441406 147.871094 Z M 178.308594 153 L 178.308594 151.800781 L 179.441406 151.800781 L 179.441406 153 L 178.308594 153 "/>
<path style=" stroke:none;fill-rule:nonzero;fill:rgb(0%,0%,0%);fill-opacity:1;" d="M 181.4375 153 L 181.4375 152.101562 L 183.570312 152.101562 L 183.570312 145.773438 L 181.707031 147.074219 L 181.707031 146.105469 L 183.636719 144.742188 L 184.601562 144.742188 L 184.601562 152.101562 L 186.632812 152.101562 L 186.632812 153 L 181.4375 153 "/>
<path style=" stroke:none;fill-rule:nonzero;fill:rgb(0%,0%,0%);fill-opacity:1;" d="M 194.128906 146.539062 C 196.195312 146.507812 196.960938 147.773438 196.960938 149.835938 C 196.992188 151.933594 196.0625 153.132812 194.097656 153.132812 C 192.132812 153.132812 191.332031 151.835938 191.300781 149.835938 C 191.300781 147.640625 192.230469 146.539062 194.128906 146.539062 Z M 194.097656 152.335938 C 195.5625 152.367188 195.863281 151.300781 195.863281 149.835938 C 195.863281 148.40625 195.59375 147.339844 194.164062 147.339844 C 192.730469 147.339844 192.398438 148.40625 192.398438 149.835938 C 192.398438 151.269531 192.730469 152.300781 194.097656 152.335938 "/>
<path style=" stroke:none;fill-rule:nonzero;fill:rgb(0%,0%,0%);fill-opacity:1;" d="M 201.257812 147.570312 C 198.660156 147.039062 199.492188 150.601562 199.359375 153 L 198.292969 153 L 198.257812 146.671875 L 199.257812 146.671875 C 199.292969 147.074219 199.226562 147.640625 199.324219 147.972656 C 199.523438 147.074219 200.089844 146.339844 201.257812 146.605469 L 201.257812 147.570312 "/>
<path style=" stroke:none;fill-rule:nonzero;fill:rgb(0%,0%,0%);fill-opacity:1;" d="M 203.386719 151.433594 C 203.320312 152.234375 203.988281 152.402344 204.652344 152.167969 L 204.652344 152.964844 C 203.554688 153.300781 202.320312 153.132812 202.320312 151.667969 L 202.320312 147.4375 L 201.589844 147.4375 L 201.589844 146.671875 L 202.386719 146.671875 L 202.6875 145.242188 L 203.386719 145.242188 L 203.386719 146.671875 L 204.554688 146.671875 L 204.554688 147.4375 L 203.386719 147.4375 L 203.386719 151.433594 "/>
<path style=" stroke:none;fill-rule:nonzero;fill:rgb(0%,0%,0%);fill-opacity:1;" d="M 208.28125 147.371094 C 205.886719 147.371094 206.816406 150.769531 206.652344 153 L 205.585938 153 L 205.585938 144.308594 L 206.652344 144.308594 L 206.617188 147.738281 C 207.015625 147.039062 207.550781 146.539062 208.648438 146.539062 C 211.613281 146.539062 210.414062 150.402344 210.648438 153 L 209.582031 153 L 209.582031 148.96875 C 209.648438 147.90625 209.316406 147.339844 208.28125 147.371094 "/>
<path style=" stroke:none;fill-rule:nonzero;fill:rgb(0%,0%,0%);fill-opacity:1;" d="M 214.742188 146.539062 C 216.808594 146.507812 217.574219 147.773438 217.574219 149.835938 C 217.605469 151.933594 216.675781 153.132812 214.710938 153.132812 C 212.746094 153.132812 211.945312 151.835938 211.914062 149.835938 C 211.914062 147.640625 212.84375 146.539062 214.742188 146.539062 Z M 214.710938 152.335938 C 216.175781 152.367188 216.472656 151.300781 216.472656 149.835938 C 216.472656 148.40625 216.207031 147.339844 214.777344 147.339844 C 213.34375 147.339844 213.011719 148.40625 213.011719 149.835938 C 213.011719 151.269531 213.34375 152.300781 214.710938 152.335938 "/>
<path style=" stroke:none;fill-rule:nonzero;fill:rgb(0%,0%,0%);fill-opacity:1;" d="M 218.871094 153 L 218.871094 144.308594 L 219.9375 144.308594 L 219.9375 153 L 218.871094 153 "/>
<path style=" stroke:none;fill-rule:nonzero;fill:rgb(0%,0%,0%);fill-opacity:1;" d="M 224.035156 146.539062 C 226.097656 146.507812 226.863281 147.773438 226.863281 149.835938 C 226.898438 151.933594 225.964844 153.132812 224 153.132812 C 222.035156 153.132812 221.234375 151.835938 221.203125 149.835938 C 221.203125 147.640625 222.136719 146.539062 224.035156 146.539062 Z M 224 152.335938 C 225.464844 152.367188 225.765625 151.300781 225.765625 149.835938 C 225.765625 148.40625 225.5 147.339844 224.066406 147.339844 C 222.636719 147.339844 222.300781 148.40625 222.300781 149.835938 C 222.300781 151.269531 222.636719 152.300781 224 152.335938 "/>
<path style=" stroke:none;fill-rule:nonzero;fill:rgb(0%,0%,0%);fill-opacity:1;" d="M 233.257812 146.671875 C 232.925781 150.835938 234.621094 156.429688 229.59375 155.363281 C 228.828125 155.164062 228.328125 154.699219 228.128906 153.933594 L 229.195312 153.765625 C 229.695312 155.332031 232.523438 154.832031 232.160156 152.832031 L 232.160156 151.835938 C 231.792969 152.535156 231.191406 153.035156 230.128906 153.035156 C 228.328125 153.035156 227.863281 151.667969 227.863281 149.835938 C 227.863281 147.972656 228.394531 146.605469 230.226562 146.574219 C 231.191406 146.539062 231.824219 147.105469 232.191406 147.738281 C 232.226562 147.40625 232.191406 146.972656 232.257812 146.671875 Z M 230.492188 152.265625 C 231.691406 152.265625 232.160156 151.203125 232.160156 149.835938 C 232.160156 148.4375 231.691406 147.339844 230.492188 147.339844 C 229.195312 147.339844 228.960938 148.472656 228.960938 149.835938 C 228.960938 151.203125 229.160156 152.265625 230.492188 152.265625 "/>
<path style="fill:none;stroke-width:7;stroke-linecap:butt;stroke-linejoin:miter;stroke:rgb(0%,0%,0%);stroke-opacity:1;stroke-miterlimit:10;" d="M 370 610 L 930 610 " transform="matrix(0.45,0,0,0.45,0,0)"/>
<path style="fill:none;stroke-width:7;stroke-linecap:butt;stroke-linejoin:miter;stroke:rgb(0%,0%,0%);stroke-opacity:1;stroke-miterlimit:10;" d="M 370 610 L 366.996528 610 " transform="matrix(0.45,0,0,0.45,0,0)"/>
<path style="fill:none;stroke-width:7;stroke-linecap:butt;stroke-linejoin:miter;stroke:rgb(0%,0%,0%);stroke-opacity:1;stroke-miterlimit:10;" d="M 930 610 L 933.003472 610 " transform="matrix(0.45,0,0,0.45,0,0)"/>
<g clip-path="url(#clip10)" clip-rule="nonzero">
<g clip-path="url(#clip11)" clip-rule="nonzero">
<path style=" stroke:none;fill-rule:nonzero;fill:url(#linear5);" d="M 164.25 272.25 L 164.25 276.75 L 166.5 276.75 L 166.5 272.25 Z M 164.25 272.25 "/>
</g>
</g>
<g clip-path="url(#clip12)" clip-rule="nonzero">
<path style="fill:none;stroke-width:7;stroke-linecap:butt;stroke-linejoin:miter;stroke:rgb(0%,0%,0%);stroke-opacity:1;stroke-miterlimit:10;" d="M 130 575 C 130 571.996528 131.996528 570 135 570 L 365 570 C 366.996528 570 370 571.996528 370 575 L 370 645 C 370 646.996528 366.996528 650 365 650 L 135 650 C 131.996528 650 130 646.996528 130 645 Z M 130 575 " transform="matrix(0.45,0,0,0.45,0,0)"/>
</g>
<g clip-path="url(#clip13)" clip-rule="nonzero">
<g clip-path="url(#clip14)" clip-rule="nonzero">
<path style=" stroke:none;fill-rule:nonzero;fill:url(#linear6);" d="M 418.5 272.25 L 418.5 276.75 L 420.75 276.75 L 420.75 272.25 Z M 418.5 272.25 "/>
</g>
</g>
<g clip-path="url(#clip15)" clip-rule="nonzero">
<path style="fill:none;stroke-width:7;stroke-linecap:butt;stroke-linejoin:miter;stroke:rgb(0%,0%,0%);stroke-opacity:1;stroke-miterlimit:10;" d="M 930 575 C 930 571.996528 931.996528 570 935 570 L 1165 570 C 1166.996528 570 1170 571.996528 1170 575 L 1170 645 C 1170 646.996528 1166.996528 650 1165 650 L 935 650 C 931.996528 650 930 646.996528 930 645 Z M 930 575 " transform="matrix(0.45,0,0,0.45,0,0)"/>
</g>
<path style=" stroke:none;fill-rule:nonzero;fill:rgb(100%,100%,100%);fill-opacity:1;" d="M 260.550781 269.550781 L 324 269.550781 L 324 279.449219 L 260.550781 279.449219 Z M 260.550781 269.550781 "/>
<path style=" stroke:none;fill-rule:nonzero;fill:rgb(0%,0%,0%);fill-opacity:1;" d="M 261.449219 279 L 261.449219 278.101562 L 263.582031 278.101562 L 263.582031 271.773438 L 261.714844 273.074219 L 261.714844 272.105469 L 263.648438 270.742188 L 264.613281 270.742188 L 264.613281 278.101562 L 266.644531 278.101562 L 266.644531 279 L 261.449219 279 "/>
<path style=" stroke:none;fill-rule:nonzero;fill:rgb(0%,0%,0%);fill-opacity:1;" d="M 268.308594 273.871094 L 268.308594 272.671875 L 269.441406 272.671875 L 269.441406 273.871094 Z M 268.308594 279 L 268.308594 277.800781 L 269.441406 277.800781 L 269.441406 279 L 268.308594 279 "/>
<path style=" stroke:none;fill-rule:nonzero;fill:rgb(0%,0%,0%);fill-opacity:1;" d="M 271.4375 279 L 271.4375 278.101562 L 273.570312 278.101562 L 273.570312 271.773438 L 271.707031 273.074219 L 271.707031 272.105469 L 273.636719 270.742188 L 274.601562 270.742188 L 274.601562 278.101562 L 276.632812 278.101562 L 276.632812 279 L 271.4375 279 "/>
<path style=" stroke:none;fill-rule:nonzero;fill:rgb(0%,0%,0%);fill-opacity:1;" d="M 284.128906 272.539062 C 286.195312 272.507812 286.960938 273.773438 286.960938 275.835938 C 286.992188 277.933594 286.0625 279.132812 284.097656 279.132812 C 282.132812 279.132812 281.332031 277.835938 281.300781 275.835938 C 281.300781 273.640625 282.230469 272.539062 284.128906 272.539062 Z M 284.097656 278.335938 C 285.5625 278.367188 285.863281 277.300781 285.863281 275.835938 C 285.863281 274.40625 285.59375 273.339844 284.164062 273.339844 C 282.730469 273.339844 282.398438 274.40625 282.398438 275.835938 C 282.398438 277.269531 282.730469 278.300781 284.097656 278.335938 "/>
<path style=" stroke:none;fill-rule:nonzero;fill:rgb(0%,0%,0%);fill-opacity:1;" d="M 291.257812 273.570312 C 288.660156 273.039062 289.492188 276.601562 289.359375 279 L 288.292969 279 L 288.257812 272.671875 L 289.257812 272.671875 C 289.292969 273.074219 289.226562 273.640625 289.324219 273.972656 C 289.523438 273.074219 290.089844 272.339844 291.257812 272.605469 L 291.257812 273.570312 "/>
<path style=" stroke:none;fill-rule:nonzero;fill:rgb(0%,0%,0%);fill-opacity:1;" d="M 293.386719 277.433594 C 293.320312 278.234375 293.988281 278.402344 294.652344 278.167969 L 294.652344 278.964844 C 293.554688 279.300781 292.320312 279.132812 292.320312 277.667969 L 292.320312 273.4375 L 291.589844 273.4375 L 291.589844 272.671875 L 292.386719 272.671875 L 292.6875 271.242188 L 293.386719 271.242188 L 293.386719 272.671875 L 294.554688 272.671875 L 294.554688 273.4375 L 293.386719 273.4375 L 293.386719 277.433594 "/>
<path style=" stroke:none;fill-rule:nonzero;fill:rgb(0%,0%,0%);fill-opacity:1;" d="M 298.28125 273.371094 C 295.886719 273.371094 296.816406 276.769531 296.652344 279 L 295.585938 279 L 295.585938 270.308594 L 296.652344 270.308594 L 296.617188 273.738281 C 297.015625 273.039062 297.550781 272.539062 298.648438 272.539062 C 301.613281 272.539062 300.414062 276.402344 300.648438 279 L 299.582031 279 L 299.582031 274.96875 C 299.648438 273.90625 299.316406 273.339844 298.28125 273.371094 "/>
<path style=" stroke:none;fill-rule:nonzero;fill:rgb(0%,0%,0%);fill-opacity:1;" d="M 304.742188 272.539062 C 306.808594 272.507812 307.574219 273.773438 307.574219 275.835938 C 307.605469 277.933594 306.675781 279.132812 304.710938 279.132812 C 302.746094 279.132812 301.945312 277.835938 301.914062 275.835938 C 301.914062 273.640625 302.84375 272.539062 304.742188 272.539062 Z M 304.710938 278.335938 C 306.175781 278.367188 306.472656 277.300781 306.472656 275.835938 C 306.472656 274.40625 306.207031 273.339844 304.777344 273.339844 C 303.34375 273.339844 303.011719 274.40625 303.011719 275.835938 C 303.011719 277.269531 303.34375 278.300781 304.710938 278.335938 "/>
<path style=" stroke:none;fill-rule:nonzero;fill:rgb(0%,0%,0%);fill-opacity:1;" d="M 308.871094 279 L 308.871094 270.308594 L 309.9375 270.308594 L 309.9375 279 L 308.871094 279 "/>
<path style=" stroke:none;fill-rule:nonzero;fill:rgb(0%,0%,0%);fill-opacity:1;" d="M 314.035156 272.539062 C 316.097656 272.507812 316.863281 273.773438 316.863281 275.835938 C 316.898438 277.933594 315.964844 279.132812 314 279.132812 C 312.035156 279.132812 311.234375 277.835938 311.203125 275.835938 C 311.203125 273.640625 312.136719 272.539062 314.035156 272.539062 Z M 314 278.335938 C 315.464844 278.367188 315.765625 277.300781 315.765625 275.835938 C 315.765625 274.40625 315.5 273.339844 314.066406 273.339844 C 312.636719 273.339844 312.300781 274.40625 312.300781 275.835938 C 312.300781 277.269531 312.636719 278.300781 314 278.335938 "/>
<path style=" stroke:none;fill-rule:nonzero;fill:rgb(0%,0%,0%);fill-opacity:1;" d="M 323.257812 272.671875 C 322.925781 276.835938 324.621094 282.429688 319.59375 281.363281 C 318.828125 281.164062 318.328125 280.699219 318.128906 279.933594 L 319.195312 279.765625 C 319.695312 281.332031 322.523438 280.832031 322.160156 278.832031 L 322.160156 277.835938 C 321.792969 278.535156 321.191406 279.035156 320.128906 279.035156 C 318.328125 279.035156 317.863281 277.667969 317.863281 275.835938 C 317.863281 273.972656 318.394531 272.605469 320.226562 272.574219 C 321.191406 272.539062 321.824219 273.105469 322.191406 273.738281 C 322.226562 273.40625 322.191406 272.972656 322.257812 272.671875 Z M 320.492188 278.265625 C 321.691406 278.265625 322.160156 277.203125 322.160156 275.835938 C 322.160156 274.4375 321.691406 273.339844 320.492188 273.339844 C 319.195312 273.339844 318.960938 274.472656 318.960938 275.835938 C 318.960938 277.203125 319.160156 278.265625 320.492188 278.265625 "/>
<path style="fill:none;stroke-width:7;stroke-linecap:butt;stroke-linejoin:miter;stroke:rgb(0%,0%,0%);stroke-opacity:1;stroke-miterlimit:10;" d="M 1050 570 L 650 90 " transform="matrix(0.45,0,0,0.45,0,0)"/>
<path style="fill:none;stroke-width:7;stroke-linecap:butt;stroke-linejoin:miter;stroke:rgb(0%,0%,0%);stroke-opacity:1;stroke-miterlimit:10;" d="M 1050 570 L 1050.998264 571.996528 " transform="matrix(0.45,0,0,0.45,0,0)"/>
<path style="fill:none;stroke-width:7;stroke-linecap:butt;stroke-linejoin:miter;stroke:rgb(0%,0%,0%);stroke-opacity:1;stroke-miterlimit:10;" d="M 650 90 L 648.003472 87.699653 " transform="matrix(0.45,0,0,0.45,0,0)"/>
<g clip-path="url(#clip16)" clip-rule="nonzero">
<g clip-path="url(#clip17)" clip-rule="nonzero">
<path style=" stroke:none;fill-rule:nonzero;fill:url(#linear7);" d="M 470.25 256.5 L 470.25 258.75 L 474.75 258.75 L 474.75 256.5 Z M 470.25 256.5 "/>
</g>
</g>
<g clip-path="url(#clip18)" clip-rule="nonzero">
<path style="fill:none;stroke-width:7;stroke-linecap:butt;stroke-linejoin:miter;stroke:rgb(0%,0%,0%);stroke-opacity:1;stroke-miterlimit:10;" d="M 930 575 C 930 571.996528 931.996528 570 935 570 L 1165 570 C 1166.996528 570 1170 571.996528 1170 575 L 1170 645 C 1170 646.996528 1166.996528 650 1165 650 L 935 650 C 931.996528 650 930 646.996528 930 645 Z M 930 575 " transform="matrix(0.45,0,0,0.45,0,0)"/>
</g>
<g clip-path="url(#clip19)" clip-rule="nonzero">
<g clip-path="url(#clip20)" clip-rule="nonzero">
<path style=" stroke:none;fill-rule:nonzero;fill:url(#linear8);" d="M 290.25 38.25 L 290.25 40.5 L 294.75 40.5 L 294.75 38.25 Z M 290.25 38.25 "/>
</g>
</g>
<g clip-path="url(#clip21)" clip-rule="nonzero">
<path style="fill:none;stroke-width:7;stroke-linecap:butt;stroke-linejoin:miter;stroke:rgb(0%,0%,0%);stroke-opacity:1;stroke-miterlimit:10;" d="M 530 15 C 530 12.196181 531.996528 10 535 10 L 765 10 C 766.996528 10 770 12.196181 770 15 L 770 85 C 770 87.803819 766.996528 90 765 90 L 535 90 C 531.996528 90 530 87.803819 530 85 Z M 530 15 " transform="matrix(0.45,0,0,0.45,0,0)"/>
</g>
<path style=" stroke:none;fill-rule:nonzero;fill:rgb(100%,100%,100%);fill-opacity:1;" d="M 350.550781 143.550781 L 414 143.550781 L 414 153.449219 L 350.550781 153.449219 Z M 350.550781 143.550781 "/>
<path style=" stroke:none;fill-rule:nonzero;fill:rgb(0%,0%,0%);fill-opacity:1;" d="M 351.449219 153 L 351.449219 152.101562 L 353.582031 152.101562 L 353.582031 145.773438 L 351.714844 147.074219 L 351.714844 146.105469 L 353.648438 144.742188 L 354.613281 144.742188 L 354.613281 152.101562 L 356.644531 152.101562 L 356.644531 153 L 351.449219 153 "/>
<path style=" stroke:none;fill-rule:nonzero;fill:rgb(0%,0%,0%);fill-opacity:1;" d="M 358.308594 147.871094 L 358.308594 146.671875 L 359.441406 146.671875 L 359.441406 147.871094 Z M 358.308594 153 L 358.308594 151.800781 L 359.441406 151.800781 L 359.441406 153 L 358.308594 153 "/>
<path style=" stroke:none;fill-rule:nonzero;fill:rgb(0%,0%,0%);fill-opacity:1;" d="M 361.4375 153 L 361.4375 152.101562 L 363.570312 152.101562 L 363.570312 145.773438 L 361.707031 147.074219 L 361.707031 146.105469 L 363.636719 144.742188 L 364.601562 144.742188 L 364.601562 152.101562 L 366.632812 152.101562 L 366.632812 153 L 361.4375 153 "/>
<path style=" stroke:none;fill-rule:nonzero;fill:rgb(0%,0%,0%);fill-opacity:1;" d="M 374.128906 146.539062 C 376.195312 146.507812 376.960938 147.773438 376.960938 149.835938 C 376.992188 151.933594 376.0625 153.132812 374.097656 153.132812 C 372.132812 153.132812 371.332031 151.835938 371.300781 149.835938 C 371.300781 147.640625 372.230469 146.539062 374.128906 146.539062 Z M 374.097656 152.335938 C 375.5625 152.367188 375.863281 151.300781 375.863281 149.835938 C 375.863281 148.40625 375.59375 147.339844 374.164062 147.339844 C 372.730469 147.339844 372.398438 148.40625 372.398438 149.835938 C 372.398438 151.269531 372.730469 152.300781 374.097656 152.335938 "/>
<path style=" stroke:none;fill-rule:nonzero;fill:rgb(0%,0%,0%);fill-opacity:1;" d="M 381.257812 147.570312 C 378.660156 147.039062 379.492188 150.601562 379.359375 153 L 378.292969 153 L 378.257812 146.671875 L 379.257812 146.671875 C 379.292969 147.074219 379.226562 147.640625 379.324219 147.972656 C 379.523438 147.074219 380.089844 146.339844 381.257812 146.605469 L 381.257812 147.570312 "/>
<path style=" stroke:none;fill-rule:nonzero;fill:rgb(0%,0%,0%);fill-opacity:1;" d="M 383.386719 151.433594 C 383.320312 152.234375 383.988281 152.402344 384.652344 152.167969 L 384.652344 152.964844 C 383.554688 153.300781 382.320312 153.132812 382.320312 151.667969 L 382.320312 147.4375 L 381.589844 147.4375 L 381.589844 146.671875 L 382.386719 146.671875 L 382.6875 145.242188 L 383.386719 145.242188 L 383.386719 146.671875 L 384.554688 146.671875 L 384.554688 147.4375 L 383.386719 147.4375 L 383.386719 151.433594 "/>
<path style=" stroke:none;fill-rule:nonzero;fill:rgb(0%,0%,0%);fill-opacity:1;" d="M 388.28125 147.371094 C 385.886719 147.371094 386.816406 150.769531 386.652344 153 L 385.585938 153 L 385.585938 144.308594 L 386.652344 144.308594 L 386.617188 147.738281 C 387.015625 147.039062 387.550781 146.539062 388.648438 146.539062 C 391.613281 146.539062 390.414062 150.402344 390.648438 153 L 389.582031 153 L 389.582031 148.96875 C 389.648438 147.90625 389.316406 147.339844 388.28125 147.371094 "/>
<path style=" stroke:none;fill-rule:nonzero;fill:rgb(0%,0%,0%);fill-opacity:1;" d="M 394.742188 146.539062 C 396.808594 146.507812 397.574219 147.773438 397.574219 149.835938 C 397.605469 151.933594 396.675781 153.132812 394.710938 153.132812 C 392.746094 153.132812 391.945312 151.835938 391.914062 149.835938 C 391.914062 147.640625 392.84375 146.539062 394.742188 146.539062 Z M 394.710938 152.335938 C 396.175781 152.367188 396.472656 151.300781 396.472656 149.835938 C 396.472656 148.40625 396.207031 147.339844 394.777344 147.339844 C 393.34375 147.339844 393.011719 148.40625 393.011719 149.835938 C 393.011719 151.269531 393.34375 152.300781 394.710938 152.335938 "/>
<path style=" stroke:none;fill-rule:nonzero;fill:rgb(0%,0%,0%);fill-opacity:1;" d="M 398.871094 153 L 398.871094 144.308594 L 399.9375 144.308594 L 399.9375 153 L 398.871094 153 "/>
<path style=" stroke:none;fill-rule:nonzero;fill:rgb(0%,0%,0%);fill-opacity:1;" d="M 404.035156 146.539062 C 406.097656 146.507812 406.863281 147.773438 406.863281 149.835938 C 406.898438 151.933594 405.964844 153.132812 404 153.132812 C 402.035156 153.132812 401.234375 151.835938 401.203125 149.835938 C 401.203125 147.640625 402.136719 146.539062 404.035156 146.539062 Z M 404 152.335938 C 405.464844 152.367188 405.765625 151.300781 405.765625 149.835938 C 405.765625 148.40625 405.5 147.339844 404.066406 147.339844 C 402.636719 147.339844 402.300781 148.40625 402.300781 149.835938 C 402.300781 151.269531 402.636719 152.300781 404 152.335938 "/>
<path style=" stroke:none;fill-rule:nonzero;fill:rgb(0%,0%,0%);fill-opacity:1;" d="M 413.257812 146.671875 C 412.925781 150.835938 414.621094 156.429688 409.59375 155.363281 C 408.828125 155.164062 408.328125 154.699219 408.128906 153.933594 L 409.195312 153.765625 C 409.695312 155.332031 412.523438 154.832031 412.160156 152.832031 L 412.160156 151.835938 C 411.792969 152.535156 411.191406 153.035156 410.128906 153.035156 C 408.328125 153.035156 407.863281 151.667969 407.863281 149.835938 C 407.863281 147.972656 408.394531 146.605469 410.226562 146.574219 C 411.191406 146.539062 411.824219 147.105469 412.191406 147.738281 C 412.226562 147.40625 412.191406 146.972656 412.257812 146.671875 Z M 410.492188 152.265625 C 411.691406 152.265625 412.160156 151.203125 412.160156 149.835938 C 412.160156 148.4375 411.691406 147.339844 410.492188 147.339844 C 409.195312 147.339844 408.960938 148.472656 408.960938 149.835938 C 408.960938 151.203125 409.160156 152.265625 410.492188 152.265625 "/>
</g>
</svg>
